<?xml version="1.0" encoding="utf-8"?>
<!-- Svg Vector Icons : http://www.onlinewebfonts.com/icon -->
<!DOCTYPE svg PUBLIC "-//W3C//DTD SVG 1.1//EN" "http://www.w3.org/Graphics/SVG/1.1/DTD/svg11.dtd">
<svg version="1.1" xmlns="http://www.w3.org/2000/svg" xmlns:xlink="http://www.w3.org/1999/xlink" x="0px" y="0px" viewBox="0 0 1000 1000" enable-background="new 0 0 1000 1000" xml:space="preserve">
<metadata> Svg Vector Icons : http://www.onlinewebfonts.com/icon </metadata>
<g><g><g><path d="M889,47.4h-33.6c0.9-2.8,1.8-5.6,1.8-8.6c0-15.9-12.9-28.8-28.8-28.8s-28.8,12.9-28.8,28.8c0,3.1,0.8,5.9,1.8,8.6H691.2c0.9-2.8,1.8-5.6,1.8-8.6C692.9,22.9,680.1,10,664.2,10c-15.9,0-28.8,12.9-28.8,28.8c0,3.1,0.9,5.9,1.8,8.6H527c0.9-2.8,1.8-5.6,1.8-8.6c0-15.9-12.9-28.8-28.8-28.8s-28.8,12.9-28.8,28.8c0,3.1,0.8,5.9,1.7,8.6H362.8c0.9-2.8,1.8-5.6,1.8-8.6c0-15.9-12.9-28.8-28.8-28.8c-15.9,0-28.8,12.9-28.8,28.8c0,3.1,0.8,5.9,1.7,8.6H198.7c0.9-2.8,1.8-5.6,1.8-8.6c0-15.9-12.9-28.8-28.8-28.8s-28.8,12.9-28.8,28.8c0,3.1,0.8,5.9,1.7,8.6H111c-45.4,0-82.3,36.9-82.3,82.3v778c0,45.4,36.9,82.3,82.3,82.3h685.1l175.2-175.2V129.7C971.3,84.3,934.4,47.4,889,47.4z M926.4,796.2l-9.3,9.3h-70.5c-33,0-59.8,26.9-59.8,59.8v70.5l-9.3,9.3H111c-20.6,0-37.4-16.8-37.4-37.4V159.6h852.8V796.2z"/><polygon points="460.3,718.7 539.7,718.7 539.7,599.5 658.7,599.5 658.7,520.2 539.7,520.2 539.7,401.1 460.3,401.1 460.3,520.2 341.3,520.2 341.3,599.5 460.3,599.5 "/><path d="M500,854.7c162.6,0,294.8-132.3,294.8-294.9S662.6,265,500,265c-162.6,0-294.9,132.3-294.9,294.9C205.2,722.5,337.4,854.7,500,854.7z M500,310.3c137.6,0,249.5,111.9,249.5,249.5c0,137.6-111.9,249.5-249.5,249.5c-137.6,0-249.5-111.9-249.5-249.5C250.5,422.3,362.4,310.3,500,310.3z"/></g></g><g></g><g></g><g></g><g></g><g></g><g></g><g></g><g></g><g></g><g></g><g></g><g></g><g></g><g></g><g></g></g>
</svg>