<?xml version="1.0" encoding="utf-8"?>
<!-- Generator: Adobe Illustrator 18.0.0, SVG Export Plug-In . SVG Version: 6.00 Build 0)  -->
<!DOCTYPE svg PUBLIC "-//W3C//DTD SVG 1.1//EN" "http://www.w3.org/Graphics/SVG/1.1/DTD/svg11.dtd">
<svg version="1.1" id="Arrow_1_" xmlns="http://www.w3.org/2000/svg" xmlns:xlink="http://www.w3.org/1999/xlink" x="0px" y="0px"
	 width="500px" height="500px" viewBox="0 0 500 500" enable-background="new 0 0 500 500" xml:space="preserve">
  <metadata>
    <?xpacket begin="﻿" id="W5M0MpCehiHzreSzNTczkc9d"?>
    <x:xmpmeta xmlns:x="adobe:ns:meta/" x:xmptk="Adobe XMP Core 5.6-c011 79.156380, 2014/06/19-23:40:37        ">
     <rdf:RDF xmlns:rdf="http://www.w3.org/1999/02/22-rdf-syntax-ns#">
      <rdf:Description rdf:about=""
        xmlns:xmpMM="http://ns.adobe.com/xap/1.0/mm/"
        xmlns:stEvt="http://ns.adobe.com/xap/1.0/sType/ResourceEvent#"
        xmlns:xmp="http://ns.adobe.com/xap/1.0/"
        xmlns:xmpRights="http://ns.adobe.com/xap/1.0/rights/"
        xmlns:dc="http://purl.org/dc/elements/1.1/"
       xmpMM:DocumentID="xmp.did:1ca422084ee67f2b04d541fadf1e1e1a"
       xmpMM:OriginalDocumentID="xmp.did:1ca422084ee67f2b04d541fadf1e1e1a"
       xmpMM:InstanceID="xmp.iid:1ca422084ee67f2b04d541fadf1e1e1a"
       xmp:ModifyDate="2015-04-21T14:07:19+02:00"
       xmp:MetadataDate="2015-04-21T14:07:19+02:00"
       xmpRights:Marked="True"
       xmpRights:WebStatement="http://www.adobe.com/legal/general-terms.html">
       <xmpMM:History>
        <rdf:Seq>
         <rdf:li
          stEvt:action="saved"
          stEvt:instanceID="xmp.iid:1ca422084ee67f2b04d541fadf1e1e1a"
          stEvt:when="2015-04-21T14:07:19+02:00"/>
        </rdf:Seq>
       </xmpMM:History>
       <xmpRights:UsageTerms>
        <rdf:Alt>
         <rdf:li xml:lang="x-default">This work is licensed under the Adobe General Terms of Use http://www.adobe.com/legal/general-terms.html.</rdf:li>
        </rdf:Alt>
       </xmpRights:UsageTerms>
       <dc:publisher>
        <rdf:Bag>
         <rdf:li>Adobe Systems Incorporated</rdf:li>
        </rdf:Bag>
       </dc:publisher>
      </rdf:Description>
     </rdf:RDF>
    </x:xmpmeta>
    <?xpacket end="r"?>
  </metadata>
<g id="_x38_95-user-group-selected_x40_2x.png">
	<g>
		<path d="M136.8,300.3c0,0,9-4.2,17.6-6.4c-10.1-9.3-12.1-10.2-12.1-25.1c0-43.7,18.2-31.2,18.2-74.9c0-68.7-50.1-68.7-56.3-68.7
			s-50.4,0-50.4,68.7c0,43.7,17.6,31.2,17.6,74.9c0,18.7-9,17-30.4,31.2c-30.3,20.2-41,25-41,75h52c2.3-6.3,5.3-12.2,8.6-17.8
			C84,320.8,136.8,300.3,136.8,300.3z M459,300c-21.4-14.3-30.5-12.5-30.5-31.2c0-43.7,17.6-31.2,17.6-74.9
			c0-68.7-44.3-68.7-50.5-68.7s-56.4,0-56.4,68.7c0,43.7,18.2,31.2,18.2,74.9c0,14.9-2,15.8-12.1,25.1c8.7,2.3,17.6,6.4,17.6,6.4
			s52.9,20.6,76.3,56.8c3.3,5.6,6.3,11.5,8.6,17.8H500C500,325,489.3,320.2,459,300z M365.9,321.4c-53.5-26.8-71.4-17.8-71.4-44.6
			c0-62.5,26.8-44.6,26.8-107.1c0-98.2-62.5-98.2-71.4-98.2c-8.9,0-71.4,0-71.4,98.2c0,62.5,26.8,44.6,26.8,107.1
			c0,26.8-17.8,17.8-71.4,44.6c-46.5,23.3-71.4,35.7-71.4,107.1h374.8C437.3,357.1,412.4,344.7,365.9,321.4z"/>
	</g>
</g>
</svg>
