<?xml version="1.0" encoding="UTF-8"?>
<!DOCTYPE svg PUBLIC "-//W3C//DTD SVG 1.1//EN" "http://www.w3.org/Graphics/SVG/1.1/DTD/svg11.dtd">
<!-- Creator: CorelDRAW -->
<svg xmlns="http://www.w3.org/2000/svg" xml:space="preserve" width="60px" height="60px" style="shape-rendering:geometricPrecision; text-rendering:geometricPrecision; image-rendering:optimizeQuality; fill-rule:evenodd; clip-rule:evenodd"
viewBox="0 0 60 60"
 xmlns:xlink="http://www.w3.org/1999/xlink">
 <defs>
  <style type="text/css">
   <![CDATA[
    .fil2 {fill:#004EC3}
    .fil0 {fill:#ABFFBA}
    .fil1 {fill:white}
   ]]>
  </style>
 </defs>
 <g id="Слой_x0020_1">
  <metadata id="CorelCorpID_0Corel-Layer"/>
  <path class="fil0" d="M30.554 1.13745c14.3521,0 25.9912,11.639 25.9912,25.9912 0,14.045 0.023623,6.73727 0.0342533,11.3001 0.0118115,4.5616 0.00944919,8.31411 -0.0425214,13.6305 0.420489,14.8057 -8.40506,0.197252 -10.3291,0.239773 -3.07689,0.0685066 -4.57813,6.26009 -7.61132,6.42545 -2.87846,0.157093 -5.44155,-5.60455 -8.04244,-5.60455 -3.58833,0 -4.58168,5.43919 -8.04717,5.69196 -2.04457,0.147644 -3.45959,-1.46581 -4.63128,-3.11823 -1.17288,-1.65361 -2.10363,-3.34501 -3.18083,-3.3521 -2.5253,-0.0165361 -9.9122,14.7632 -9.91929,-0.0307099 -0.0330722,-11.6993 -0.154731,-16.9188 -0.212607,-25.1821 -0.0992165,-14.351 11.639,-25.9912 25.9912,-25.9912z">
  <animate dur="2s" values="#ABFFBA; #29DA61; #ABFFBA" keyTimes="0; 0.5; 1" attributeName="fill" repeatCount="indefinite"/>
</path>
<circle class="fil1" cx="20.8184" cy="23.424" r="6.8397"/>
<circle class="fil2" cx="18.1185" cy="23.244" r="2.87987">
<animate dur="1s" values="18.1185; 23; 18.1185" keyTimes="0; 0.5; 1" attributeName="cx" repeatCount="indefinite"/>
</circle>
<circle class="fil1" cx="40.4375" cy="23.424" r="6.8397"/>
<circle class="fil2" cx="37.7376" cy="23.244" r="2.87987">
<animate dur="1s" values="37.7376; 43; 37.7376" keyTimes="0; 0.5; 1" attributeName="cx" repeatCount="indefinite"/>
</circle>
 </g>
</svg>
